<svg version="1.1" id="Layer_1" xmlns="http://www.w3.org/2000/svg" xmlns:xlink="http://www.w3.org/1999/xlink" x="0px" y="0px" viewBox="0 0 500 500" style="width: 188px;" xml:space="preserve" data-imageid="transferwise-80" imageName="Transferwise" class="illustrations_image">
<style type="text/css">
	.st0_transferwise-80{fill:#FFFFFF;}
	.st1_transferwise-80{fill:#231F20;}
	.st2_transferwise-80{fill:#D1D3D4;}
	.st3_transferwise-80{fill:#68E1FD;}
	.st4_transferwise-80{fill:none;}
</style>
<g id="Smartphone_transferwise-80">
	<path class="st0_transferwise-80" d="M251.1,96.7h137.2c6.7,0,12.1,5.4,12.1,12.1v275.4c0,6.7-5.4,12.1-12.1,12.1H251.1c-6.7,0-12.1-5.4-12.1-12.1&#xA;&#9;&#9;V108.8C239,102.1,244.4,96.7,251.1,96.7z"/>
	<path class="st1_transferwise-80" d="M383.4,397H255.9c-9.7,0-17.6-7.9-17.6-17.6V113.6c0-9.7,7.9-17.6,17.6-17.6h127.5c9.7,0,17.6,7.9,17.6,17.6&#xA;&#9;&#9;v265.8C401,389.1,393.1,397,383.4,397z M255.9,97.4c-8.9,0-16.2,7.2-16.2,16.2v265.8c0,8.9,7.2,16.2,16.2,16.2h127.5&#xA;&#9;&#9;c8.9,0,16.2-7.2,16.2-16.2V113.6c0-8.9-7.2-16.2-16.2-16.2L255.9,97.4L255.9,97.4z"/>
	<path class="st2_transferwise-80" d="M321.6,107.3h-11.8c-0.4,0-0.7-0.3-0.7-0.7c0-0.4,0.3-0.7,0.7-0.7h11.8c0.4,0,0.7,0.3,0.7,0.7&#xA;&#9;&#9;C322.3,107,322,107.3,321.6,107.3z"/>
	<path class="st2_transferwise-80" d="M329.5,107.3h-4c-0.4,0-0.7-0.3-0.7-0.7c0-0.4,0.3-0.7,0.7-0.7h4c0.4,0,0.7,0.3,0.7,0.7&#xA;&#9;&#9;C330.2,107,329.9,107.3,329.5,107.3z"/>
	<circle class="st2_transferwise-80" cx="319.6" cy="380.8" r="8.3"/>
</g>
<g id="Screen_transferwise-80">
	<rect x="246.9" y="115.6" class="st0_transferwise-80" width="145.5" height="251.6"/>
	<path class="st1_transferwise-80" d="M392.4,115.6v251.6H246.9V115.6H392.4 M392.4,114.2H246.9c-0.8,0-1.4,0.6-1.4,1.4v251.6c0,0.8,0.6,1.4,1.4,1.4&#xA;&#9;&#9;h145.5c0.8,0,1.4-0.6,1.4-1.4V115.6C393.8,114.8,393.2,114.2,392.4,114.2z"/>
	<rect x="246.9" y="115.6" class="st3_transferwise-80 targetColor" width="145.4" height="66" style="fill: rgb(93, 245, 99);"/>
	<path class="st0_transferwise-80" d="M264.2,127.2h81.4c4,0,7.2,3.2,7.2,7.2v28.8c0,4-3.2,7.2-7.2,7.2h-81.4c-4,0-7.2-3.2-7.2-7.2v-28.8&#xA;&#9;&#9;C257,130.4,260.2,127.2,264.2,127.2z"/>
	<path class="st1_transferwise-80" d="M342.7,171H267c-5.9,0-10.7-4.8-10.8-10.8v-23c0-5.9,4.8-10.7,10.8-10.8h75.7c5.9,0,10.7,4.8,10.8,10.8v23&#xA;&#9;&#9;C353.5,166.2,348.7,171,342.7,171z M267,127.9c-5.2,0-9.3,4.2-9.4,9.4v23c0,5.2,4.2,9.3,9.4,9.4h75.7c5.2,0,9.3-4.2,9.4-9.4v-23&#xA;&#9;&#9;c0-5.2-4.2-9.3-9.4-9.3l0,0L267,127.9z"/>
	<path class="st0_transferwise-80" d="M393.1,127.2v43.1h-22.4c-5.5,0-10-4.5-10-10.1v-23c0-5.5,4.5-10,10-10L393.1,127.2z"/>
	<path class="st1_transferwise-80" d="M393.1,171h-22.4c-5.9,0-10.8-4.8-10.8-10.8v-23c0-5.9,4.8-10.7,10.8-10.8h22.4c0.4,0,0.7,0.3,0.7,0.7v0v43.1&#xA;&#9;&#9;C393.8,170.7,393.5,171,393.1,171z M370.8,127.9c-5.2,0-9.4,4.2-9.4,9.3c0,0,0,0,0,0v23c0,5.2,4.2,9.4,9.4,9.4h21.6v-41.7&#xA;&#9;&#9;L370.8,127.9z"/>
	<path class="st1_transferwise-80" d="M280.4,160.7h-10.1c-0.4,0-0.7-0.3-0.7-0.7c0,0,0,0,0,0v-6.1c0-0.4,0.3-0.7,0.7-0.7l0,0h10.1&#xA;&#9;&#9;c0.4,0,0.7,0.3,0.7,0.7c0,0,0,0,0,0v6.1C281.1,160.4,280.8,160.7,280.4,160.7C280.4,160.7,280.4,160.7,280.4,160.7z M271,159.3h8.7&#xA;&#9;&#9;v-4.7H271L271,159.3z"/>
	<path class="st1_transferwise-80" d="M315.1,157.7h-28.8c-0.4,0-0.7-0.3-0.7-0.7c0-0.4,0.3-0.7,0.7-0.7h28.8c0.4,0,0.7,0.3,0.7,0.7&#xA;&#9;&#9;C315.8,157.3,315.5,157.7,315.1,157.7z"/>
	<rect x="270.3" y="137.7" class="st1_transferwise-80" width="44.8" height="6.2"/>
	<path class="st2_transferwise-80" d="M292.7,197.2h-31.9c-0.4,0-0.7-0.3-0.7-0.7c0-0.4,0.3-0.7,0.7-0.7h31.9c0.4,0,0.7,0.3,0.7,0.7&#xA;&#9;&#9;S293.1,197.2,292.7,197.2C292.7,197.2,292.7,197.2,292.7,197.2L292.7,197.2z"/>
	<path class="st2_transferwise-80" d="M390.5,207.1H249.8c-0.4,0-0.7-0.3-0.7-0.7c0-0.4,0.3-0.7,0.7-0.7h140.6c0.4,0,0.7,0.3,0.7,0.7&#xA;&#9;&#9;S390.9,207.1,390.5,207.1C390.5,207.1,390.5,207.1,390.5,207.1z"/>
	<path class="st3_transferwise-80 targetColor" d="M380.5,198.2c-3.2,0-5.9-2.6-5.9-5.9s2.6-5.9,5.9-5.9c3.2,0,5.9,2.6,5.9,5.9v0&#xA;&#9;&#9;C386.4,195.5,383.7,198.2,380.5,198.2z M380.5,187.8c-2.5,0-4.4,2-4.4,4.5s2,4.4,4.5,4.4c2.4,0,4.4-2,4.4-4.5&#xA;&#9;&#9;C385,189.8,383,187.8,380.5,187.8C380.5,187.8,380.5,187.8,380.5,187.8z" style="fill: rgb(93, 245, 99);"/>
	<path class="st3_transferwise-80 targetColor" d="M372.8,201.8c-0.2,0-0.3-0.1-0.5-0.2c-0.3-0.3-0.3-0.7,0-1c0,0,0,0,0,0l4.1-4.6c0.3-0.2,0.8-0.1,1,0.2&#xA;&#9;&#9;c0.2,0.2,0.2,0.5,0,0.8l-4.1,4.6C373.2,201.7,373,201.8,372.8,201.8z" style="fill: rgb(93, 245, 99);"/>
	<path class="st2_transferwise-80" d="M265.8,227.9c-2.9,0-5.3-2.4-5.3-5.3c0-2.9,2.4-5.3,5.3-5.3c2.9,0,5.3,2.4,5.3,5.3&#xA;&#9;&#9;C271.1,225.6,268.7,227.9,265.8,227.9z M265.8,218.8c-2.1,0-3.9,1.7-3.9,3.9s1.7,3.9,3.9,3.9c2.1,0,3.9-1.7,3.9-3.9v0&#xA;&#9;&#9;C269.7,220.5,268,218.8,265.8,218.8z"/>
	<path class="st2_transferwise-80" d="M307.8,218.8H278c-0.4,0-0.7-0.3-0.7-0.7c0-0.4,0.3-0.7,0.7-0.7h29.9c0.4,0,0.7,0.3,0.7,0.7&#xA;&#9;&#9;C308.6,218.5,308.3,218.8,307.8,218.8L307.8,218.8z"/>
	<path class="st2_transferwise-80" d="M292.9,227.9H278c-0.4,0-0.7-0.3-0.7-0.7c0-0.4,0.3-0.7,0.7-0.7h14.9c0.4,0,0.7,0.3,0.7,0.7&#xA;&#9;&#9;S293.3,227.9,292.9,227.9C292.9,227.9,292.9,227.9,292.9,227.9L292.9,227.9z"/>
	<path class="st2_transferwise-80" d="M378,223.4h-27.7c-0.4,0-0.7-0.3-0.7-0.7s0.3-0.7,0.7-0.7c0,0,0,0,0,0H378c0.4,0,0.7,0.3,0.7,0.7&#xA;&#9;&#9;C378.7,223.1,378.4,223.4,378,223.4z"/>
	<path class="st2_transferwise-80" d="M382.1,239.5H257.2c-0.4,0-0.7-0.3-0.7-0.7s0.3-0.7,0.7-0.7c0,0,0,0,0,0h124.8c0.4,0,0.7,0.3,0.7,0.7&#xA;&#9;&#9;C382.8,239.2,382.4,239.5,382.1,239.5z"/>
	<path class="st2_transferwise-80" d="M265.8,264.2c-2.9,0-5.3-2.4-5.3-5.3c0-2.9,2.4-5.3,5.3-5.3c2.9,0,5.3,2.4,5.3,5.3&#xA;&#9;&#9;C271.1,261.8,268.7,264.2,265.8,264.2z M265.8,255.1c-2.1,0-3.9,1.7-3.9,3.9s1.7,3.9,3.9,3.9s3.9-1.7,3.9-3.9v0&#xA;&#9;&#9;C269.7,256.8,268,255.1,265.8,255.1L265.8,255.1z"/>
	<path class="st2_transferwise-80" d="M307.8,255.1H278c-0.4,0-0.7-0.3-0.7-0.7s0.3-0.7,0.7-0.7c0,0,0,0,0,0h29.9c0.4,0,0.7,0.3,0.7,0.7&#xA;&#9;&#9;S308.3,255,307.8,255.1C307.9,255.1,307.9,255.1,307.8,255.1L307.8,255.1z"/>
	<path class="st2_transferwise-80" d="M292.9,264.2H278c-0.4,0-0.7-0.3-0.7-0.7c0-0.4,0.3-0.7,0.7-0.7h14.9c0.4,0,0.7,0.3,0.7,0.7&#xA;&#9;&#9;S293.3,264.2,292.9,264.2C292.9,264.2,292.9,264.2,292.9,264.2L292.9,264.2z"/>
	<path class="st2_transferwise-80" d="M378,259.6h-27.7c-0.4,0-0.7-0.3-0.7-0.7c0-0.4,0.3-0.7,0.7-0.7H378c0.4,0,0.7,0.3,0.7,0.7&#xA;&#9;&#9;S378.4,259.6,378,259.6C378,259.6,378,259.6,378,259.6z"/>
	<path class="st2_transferwise-80" d="M382.1,275.8H257.2c-0.4,0-0.7-0.3-0.7-0.7s0.3-0.7,0.7-0.7c0,0,0,0,0,0h124.8c0.4,0,0.7,0.3,0.7,0.7&#xA;&#9;&#9;C382.8,275.5,382.4,275.8,382.1,275.8z"/>
	<path class="st2_transferwise-80" d="M265.8,300.4c-2.9,0-5.3-2.4-5.3-5.3c0-2.9,2.4-5.3,5.3-5.3c2.9,0,5.3,2.4,5.3,5.3&#xA;&#9;&#9;C271.1,298.1,268.7,300.4,265.8,300.4z M265.8,291.3c-2.1,0-3.9,1.7-3.9,3.9s1.7,3.9,3.9,3.9s3.9-1.7,3.9-3.9v0&#xA;&#9;&#9;C269.7,293,268,291.3,265.8,291.3z"/>
	<path class="st2_transferwise-80" d="M307.8,291.3H278c-0.4,0-0.7-0.3-0.7-0.7c0-0.4,0.3-0.7,0.7-0.7h29.9c0.4,0,0.7,0.3,0.7,0.7&#xA;&#9;&#9;C308.6,291,308.3,291.3,307.8,291.3L307.8,291.3z"/>
	<path class="st2_transferwise-80" d="M292.9,300.4H278c-0.4,0-0.7-0.3-0.7-0.7c0-0.4,0.3-0.7,0.7-0.7h14.9c0.4,0,0.7,0.3,0.7,0.7&#xA;&#9;&#9;C293.6,300.1,293.3,300.4,292.9,300.4L292.9,300.4z"/>
	<path class="st2_transferwise-80" d="M378,295.9h-27.7c-0.4,0-0.7-0.3-0.7-0.7c0-0.4,0.3-0.7,0.7-0.7H378c0.4,0,0.7,0.3,0.7,0.7&#xA;&#9;&#9;S378.4,295.8,378,295.9C378,295.9,378,295.9,378,295.9z"/>
	<path class="st2_transferwise-80" d="M382.1,312H257.2c-0.4,0-0.7-0.3-0.7-0.7s0.3-0.7,0.7-0.7c0,0,0,0,0,0h124.8c0.4,0,0.7,0.3,0.7,0.7&#xA;&#9;&#9;C382.8,311.7,382.4,312,382.1,312z"/>
	<path class="st2_transferwise-80" d="M265.8,336.6c-2.9,0-5.3-2.4-5.3-5.3c0-2.9,2.4-5.3,5.3-5.3c2.9,0,5.3,2.4,5.3,5.3&#xA;&#9;&#9;C271.1,334.3,268.7,336.6,265.8,336.6z M265.8,327.5c-2.1,0-3.9,1.7-3.9,3.9s1.7,3.9,3.9,3.9s3.9-1.7,3.9-3.9v0&#xA;&#9;&#9;C269.7,329.3,268,327.5,265.8,327.5z"/>
	<path class="st2_transferwise-80" d="M307.8,327.5H278c-0.4,0-0.7-0.3-0.7-0.7c0-0.4,0.3-0.7,0.7-0.7h29.9c0.4,0,0.7,0.3,0.7,0.7&#xA;&#9;&#9;C308.6,327.2,308.3,327.5,307.8,327.5L307.8,327.5z"/>
	<path class="st2_transferwise-80" d="M292.9,336.6H278c-0.4,0-0.7-0.3-0.7-0.7c0-0.4,0.3-0.7,0.7-0.7h14.9c0.4,0,0.7,0.3,0.7,0.7&#xA;&#9;&#9;S293.3,336.6,292.9,336.6C292.9,336.6,292.9,336.6,292.9,336.6L292.9,336.6z"/>
	<path class="st2_transferwise-80" d="M378,332.1h-27.7c-0.4,0-0.7-0.3-0.7-0.7c0-0.4,0.3-0.7,0.7-0.7H378c0.4,0,0.7,0.3,0.7,0.7&#xA;&#9;&#9;C378.7,331.8,378.4,332.1,378,332.1z"/>
	<rect x="246.9" y="346.8" class="st0_transferwise-80" width="145.5" height="20.5"/>
	<path class="st1_transferwise-80" d="M392.4,346.8v20.5H246.9v-20.5H392.4 M392.4,345.4H246.9c-0.8,0-1.4,0.6-1.4,1.4v20.5c0,0.8,0.6,1.4,1.4,1.4&#xA;&#9;&#9;h145.5c0.8,0,1.4-0.6,1.4-1.4v-20.5C393.8,346,393.2,345.4,392.4,345.4z"/>
	<circle class="st3_transferwise-80 targetColor" cx="319.6" cy="347.9" r="10.8" style="fill: rgb(93, 245, 99);"/>
	<path class="st1_transferwise-80" d="M319.6,359.4c-6.3,0-11.5-5.1-11.5-11.5c0-6.3,5.1-11.5,11.5-11.5c6.3,0,11.5,5.1,11.5,11.5c0,0,0,0,0,0&#xA;&#9;&#9;C331.1,354.3,326,359.4,319.6,359.4z M319.6,337.9c-5.6,0-10.1,4.5-10.1,10.1s4.5,10.1,10.1,10.1c5.6,0,10.1-4.5,10.1-10&#xA;&#9;&#9;C329.8,342.4,325.3,337.9,319.6,337.9C319.7,337.9,319.7,337.9,319.6,337.9z"/>
	<path class="st3_transferwise-80 targetColor" d="M259.7,352.2h8.9c0.9,0,1.7,0.8,1.7,1.7v6.2c0,0.9-0.8,1.7-1.7,1.7h-8.9c-0.9,0-1.7-0.8-1.7-1.7v-6.2&#xA;&#9;&#9;C258,353,258.8,352.2,259.7,352.2z" style="fill: rgb(93, 245, 99);"/>
	<path class="st3_transferwise-80 targetColor" d="M287.5,352.2h8.9c0.9,0,1.7,0.8,1.7,1.7v6.2c0,0.9-0.8,1.7-1.7,1.7h-8.9c-0.9,0-1.7-0.8-1.7-1.7v-6.2&#xA;&#9;&#9;C285.8,353,286.5,352.2,287.5,352.2z" style="fill: rgb(93, 245, 99);"/>
	<path class="st3_transferwise-80 targetColor" d="M343,352.2h8.9c0.9,0,1.7,0.8,1.7,1.7v6.2c0,0.9-0.8,1.7-1.7,1.7H343c-0.9,0-1.7-0.8-1.7-1.7v-6.2&#xA;&#9;&#9;C341.2,353,342,352.2,343,352.2z" style="fill: rgb(93, 245, 99);"/>
	<path class="st3_transferwise-80 targetColor" d="M370.7,352.2h8.9c0.9,0,1.7,0.8,1.7,1.7v6.2c0,0.9-0.8,1.7-1.7,1.7h-8.9c-0.9,0-1.7-0.8-1.7-1.7v-6.2&#xA;&#9;&#9;C369,353,369.7,352.2,370.7,352.2z" style="fill: rgb(93, 245, 99);"/>
	<path class="st0_transferwise-80" d="M315.7,354.3c-1.2,0-2.1-0.9-2.1-2.1s0.9-2.1,2.1-2.1c1.2,0,2.1,0.9,2.1,2.1l0,0&#xA;&#9;&#9;C317.9,353.4,316.9,354.3,315.7,354.3z M315.7,351.1c-0.6,0-1.1,0.5-1.1,1.1c0,0.6,0.5,1.1,1.1,1.1c0.6,0,1.1-0.5,1.1-1.1&#xA;&#9;&#9;S316.3,351.1,315.7,351.1L315.7,351.1z"/>
	<path class="st0_transferwise-80" d="M317.9,350.5c-0.1,0-0.2,0-0.3-0.1c-0.2-0.2-0.3-0.5-0.1-0.7c0,0,0,0,0,0l6.4-7.9c0.2-0.2,0.5-0.3,0.7-0.2&#xA;&#9;&#9;s0.3,0.5,0.2,0.7c0,0-0.1,0.1-0.1,0.1l-6.4,7.9C318.3,350.4,318.1,350.5,317.9,350.5z"/>
	<path class="st0_transferwise-80" d="M324.4,345.7c-0.3,0-0.5-0.2-0.5-0.5v-2.4l-3.4,0.6c-0.3,0.1-0.6-0.1-0.6-0.4c0,0,0,0,0,0&#xA;&#9;&#9;c-0.1-0.3,0.1-0.6,0.4-0.6c0,0,0,0,0,0l4-0.7c0.2,0,0.3,0,0.4,0.1c0.1,0.1,0.2,0.2,0.2,0.4v3C324.9,345.4,324.7,345.6,324.4,345.7&#xA;&#9;&#9;C324.4,345.6,324.4,345.6,324.4,345.7L324.4,345.7z"/>
</g>
<g id="Character_transferwise-80">
	<path class="st0_transferwise-80" d="M114.8,184.8c-0.1-2.2-0.8-4.6-2.6-5.9c-2.1-1.4-4.9-0.9-7.2-0.1c-1.4,0.4-2.7,1.2-3.8,2.2&#xA;&#9;&#9;c-2.3,2.6-1.6,6.6-0.5,9.9c1.7,5.3,3.7,10.5,6.2,15.5c0.2,0.5,0.5,0.9,1,1.2c0.7,0.3,10.1-1.3,10.8-1.3c3.8-0.2,0.7-3.3-0.6-8&#xA;&#9;&#9;c-0.5-1.8-1.9-3.4-2.5-5.2C114.6,190.3,115,187.6,114.8,184.8L114.8,184.8z"/>
	<path class="st1_transferwise-80" d="M108.2,208.3c-0.3,0-0.5,0-0.7-0.1c-0.6-0.3-1-0.9-1.3-1.5c-2.4-5-4.5-10.2-6.2-15.6c-1-3.1-2-7.6,0.7-10.6&#xA;&#9;&#9;c1.1-1.1,2.5-1.9,4.1-2.4c3.3-1.2,6-1.1,7.9,0.2c2.2,1.5,2.8,4.3,2.9,6.4l0,0c0,0.8,0,1.6,0,2.4c-0.1,1.9,0.1,3.8,0.6,5.7&#xA;&#9;&#9;c0.3,0.8,0.7,1.6,1.2,2.3c0.6,0.9,1.1,1.9,1.4,2.9c0.4,1.3,0.9,2.6,1.4,3.8c0.8,1.8,1.4,3.1,0.8,4.1c-0.5,0.7-1.4,1.1-2.2,1&#xA;&#9;&#9;c-0.2,0-1.3,0.2-2.5,0.4c-2.6,0.5-5.3,0.8-8,1L108.2,208.3z M109.1,178.7c-1.3,0-2.6,0.3-3.8,0.8c-1.3,0.4-2.5,1.1-3.5,2&#xA;&#9;&#9;c-2.2,2.4-1.3,6.4-0.4,9.2c1.7,5.3,3.7,10.4,6.1,15.4c0.1,0.3,0.3,0.6,0.6,0.9c0.6,0.1,5.5-0.7,7.9-1c1.6-0.2,2.4-0.4,2.6-0.4&#xA;&#9;&#9;c0.9,0,1.1-0.2,1.1-0.3c0.2-0.4-0.3-1.7-0.8-2.8c-0.6-1.3-1.1-2.6-1.5-4c-0.3-0.9-0.7-1.8-1.2-2.6c-0.5-0.8-0.9-1.7-1.3-2.6&#xA;&#9;&#9;c-0.6-2-0.8-4.1-0.7-6.1c0-0.8,0-1.5,0-2.3l0,0c-0.1-1.4-0.4-4-2.3-5.3C111,178.9,110.1,178.6,109.1,178.7L109.1,178.7z"/>
	<path class="st0_transferwise-80" d="M231.8,377.9c0.2,0.6,6.6,11.3,6.6,11.3s7,2.1,12.2-2.5l-5.4-13.6L231.8,377.9L231.8,377.9z"/>
	<path class="st1_transferwise-80" d="M242.2,390.4c-1.4,0-2.7-0.2-4.1-0.5c-0.2,0-0.3-0.2-0.4-0.3c-1.9-3.2-6.4-10.8-6.6-11.4&#xA;&#9;&#9;c-0.1-0.4,0.1-0.7,0.4-0.9l13.4-4.8c0.4-0.1,0.8,0,0.9,0.4l5.4,13.6c0.1,0.3,0,0.6-0.2,0.8C248.6,389.4,245.4,390.5,242.2,390.4&#xA;&#9;&#9;L242.2,390.4z M238.8,388.6c1.2,0.3,6.6,1.3,10.9-2.1l-5-12.5l-12,4.3C233.8,380.1,236.8,385.2,238.8,388.6L238.8,388.6z&#xA;&#9;&#9; M231.8,378L231.8,378z"/>
	<path class="st1_transferwise-80" d="M174,387.6l-17.1,12.3c0.1,4.9,10.6,3.6,20.3,1.2s11.6-4.4,11.6-4.4l-0.2-8.4L174,387.6L174,387.6z"/>
	<path class="st1_transferwise-80" d="M163.5,404c-2.8,0-4.7-0.5-5.9-1.4c-0.8-0.6-1.3-1.6-1.3-2.7c0-0.2,0.1-0.4,0.3-0.6l17.1-12.3&#xA;&#9;&#9;c0.1-0.1,0.3-0.1,0.4-0.1l14.6,0.8c0.4,0,0.7,0.3,0.7,0.7l0.2,8.4c0,0.2-0.1,0.4-0.2,0.5c-0.2,0.2-2.4,2.2-11.9,4.6&#xA;&#9;&#9;C172.8,403.1,168.2,403.8,163.5,404L163.5,404z M157.7,400.3c0.1,0.5,0.4,0.9,0.8,1.2c2.2,1.7,8.8,1.4,18.6-1&#xA;&#9;&#9;c7.6-1.8,10.4-3.5,11.1-4l-0.2-7.4l-13.7-0.8L157.7,400.3L157.7,400.3z"/>
	<path class="st0_transferwise-80" d="M188.1,374l0.5,14.4c0,0-8.5,3.8-14.6-0.8l-2.7-17L188.1,374z"/>
	<path class="st1_transferwise-80" d="M181.3,390.6c-2.8,0.1-5.5-0.8-7.8-2.5c-0.1-0.1-0.2-0.3-0.3-0.5l-2.7-17c0-0.2,0-0.5,0.2-0.6&#xA;&#9;&#9;c0.2-0.2,0.4-0.2,0.6-0.2l16.7,3.4c0.3,0.1,0.6,0.3,0.6,0.7l0.5,14.4c0,0.3-0.2,0.5-0.4,0.7C186.5,390,183.9,390.5,181.3,390.6&#xA;&#9;&#9;L181.3,390.6z M174.6,387.2c4.9,3.5,11.5,1.4,13.2,0.7l-0.5-13.4l-15.2-3L174.6,387.2L174.6,387.2z"/>
	<path class="st1_transferwise-80" d="M163.4,270.4l47.4-9.4l38,117c-5.1,4.1-12.1,5.3-18.2,3l-40.3-79.4l0.4,79.5c-8.6,4.1-19.6-0.6-19.6-0.6&#xA;&#9;&#9;c-7.5-23.7-12.6-110.2-12.6-110.2"/>
	<path class="st1_transferwise-80" d="M182.5,383.4c-4-0.1-7.9-0.8-11.7-2.3c-0.2-0.1-0.3-0.2-0.4-0.4c-7.5-23.5-12.6-109.5-12.7-110.4&#xA;&#9;&#9;c0-0.4,0.3-0.7,0.6-0.7c0.4,0,0.7,0.3,0.7,0.6c0.1,0.9,5.1,86,12.5,109.7c1.7,0.7,10.9,3.9,18.3,0.6l-0.4-79c0-0.4,0.3-0.7,0.7-0.7&#xA;&#9;&#9;c0.3,0,0.5,0.1,0.6,0.4l40.1,79.1c5.7,2,12.1,1,16.9-2.7l-37.6-115.9l-46.8,9.2c-0.4,0.1-0.7-0.2-0.8-0.5c-0.1-0.4,0.2-0.7,0.5-0.8&#xA;&#9;&#9;c0,0,0,0,0,0l47.4-9.4c0.3-0.1,0.7,0.1,0.8,0.5l38,117c0.1,0.3,0,0.6-0.2,0.8c-5.3,4.3-12.5,5.4-18.9,3.1c-0.1-0.1-0.3-0.2-0.3-0.3&#xA;&#9;&#9;L191,304.5l0.4,76.5c0,0.3-0.2,0.5-0.4,0.6C188.3,382.8,185.4,383.4,182.5,383.4L182.5,383.4z"/>
	<path class="st1_transferwise-80" d="M238.4,389.2c0,0,1.7,7.7,2.4,8.6s26,6.4,27.4,3.5s-17.6-14.5-17.6-14.5S243.7,390.2,238.4,389.2z"/>
	<path class="st1_transferwise-80" d="M264.9,402.8c-7.1,0-23.7-3.5-24.6-4.6c-0.8-0.9-2.2-7-2.6-8.9c0-0.2,0-0.5,0.2-0.6c0.2-0.2,0.4-0.2,0.6-0.2&#xA;&#9;&#9;c5,0.9,11.7-2.4,11.8-2.4c0.2-0.1,0.5-0.1,0.7,0c17.6,10.7,18.3,14.4,17.9,15.4c-0.4,0.8-1.5,1.1-2.3,1.2&#xA;&#9;&#9;C266,402.8,265.4,402.8,264.9,402.8L264.9,402.8z M239.3,390c0.5,2.5,1.2,5,2.1,7.3c4.3,1.3,8.7,2.3,13.2,3&#xA;&#9;&#9;c9.5,1.6,12.7,1.1,13,0.6c0.6-1.3-7.3-7.5-17-13.4C249.1,388.2,243.9,390.4,239.3,390L239.3,390z"/>
	<path class="st3_transferwise-80 targetColor" d="M178.2,193.4l-16,6c0,0-8,57.8-5.7,74.8c0,0,46.1,2.6,60.5-5.4c0,0-8.2-43-6.7-51c1-5.7,1.5-11.4,1.7-17.1&#xA;&#9;&#9;l-19.3-7L178.2,193.4z" style="fill: rgb(93, 245, 99);"/>
	<path class="st0_transferwise-80" d="M244.4,190.1c0.4-1.4,0.5-2.9,0.4-4.4c-0.3-2,0.2-6.3-0.3-7.8s-6.2-6.1-5.7-6.9c0.8-1,2.2-1.4,3.5-0.9&#xA;&#9;&#9;c1.2,0.6,5.9,5.5,5.9,5.5c4.6-2.5,9.3-4.7,13.9-7.4c0.5-0.3,1.1-0.6,1.6-0.8c0.7-0.2,1.5-0.2,2.2-0.1c0.8,0,1.6,0.2,2.2,0.6&#xA;&#9;&#9;c2.3,1.6-2.2,5.6-3.3,7.1c-1.6,1.9-3.1,3.9-4.3,6c-0.9,1.8-2.5,5.9-4.1,6.9c-0.8,0.5-1.7,1-2.6,1.3l-1.6,3.3L244.4,190.1&#xA;&#9;&#9;L244.4,190.1z"/>
	<path class="st1_transferwise-80" d="M252.1,193.2h-0.2l-7.7-2.4c-0.4-0.1-0.6-0.5-0.5-0.9c0.4-1.4,0.5-2.8,0.4-4.1c-0.1-1.2-0.1-2.4-0.1-3.6&#xA;&#9;&#9;c0.1-1.4,0.1-2.7-0.2-4.1c-0.8-1.2-1.8-2.3-2.8-3.2c-2.4-2.4-3.3-3.4-2.9-4.2c1-1.4,2.8-1.9,4.4-1.2c1.1,0.6,4.4,3.9,5.7,5.3&#xA;&#9;&#9;c1.7-0.9,3.4-1.8,5-2.6c2.8-1.4,5.6-2.9,8.4-4.5c0.6-0.4,1.2-0.6,1.8-0.9c0.8-0.2,1.6-0.3,2.5-0.2c0.9,0,1.8,0.3,2.6,0.8&#xA;&#9;&#9;c0.5,0.3,0.8,0.9,0.9,1.5c0.2,1.8-1.8,4-3.2,5.6c-0.4,0.4-0.7,0.8-0.9,1c-0.4,0.5-0.8,1-1.2,1.5c-1.2,1.4-2.2,2.9-3.1,4.4&#xA;&#9;&#9;c-0.2,0.4-0.5,0.9-0.7,1.5c-1,2.1-2.2,4.8-3.6,5.7c-0.8,0.5-1.6,0.9-2.5,1.3l-1.5,3C252.6,193.1,252.3,193.2,252.1,193.2&#xA;&#9;&#9;L252.1,193.2z M245.2,189.7l6.5,2l1.3-2.7c0.1-0.2,0.2-0.3,0.4-0.4c0.9-0.3,1.7-0.8,2.5-1.2c1.1-0.6,2.3-3.3,3.1-5.1&#xA;&#9;&#9;c0.3-0.6,0.5-1.1,0.8-1.6c0.9-1.7,2-3.3,3.3-4.7c0.4-0.5,0.8-1,1.1-1.4c0.2-0.3,0.6-0.7,1-1.1c1-1.2,3-3.3,2.9-4.5&#xA;&#9;&#9;c0-0.2-0.1-0.4-0.3-0.5c-0.6-0.3-1.2-0.5-1.9-0.5c-0.7-0.1-1.3,0-2,0.1c-0.5,0.2-1,0.4-1.5,0.7c-2.8,1.6-5.6,3.1-8.4,4.5&#xA;&#9;&#9;c-1.8,0.9-3.6,1.9-5.5,2.9c-0.3,0.2-0.6,0.1-0.8-0.1c-1.8-1.9-4.9-5-5.7-5.4c-0.8-0.3-1.7-0.1-2.4,0.4c0.8,1,1.6,1.9,2.5,2.8&#xA;&#9;&#9;c1.8,1.8,2.9,2.9,3.1,3.8c0.3,1.5,0.4,3,0.2,4.6c-0.1,1.1,0,2.2,0.1,3.4C245.6,186.9,245.5,188.3,245.2,189.7L245.2,189.7z"/>
	<path class="st0_transferwise-80" d="M253,175c2.7,0.4,5.3,1.3,7.7,2.6"/>
	<path class="st1_transferwise-80" d="M260.7,178.3c-0.1,0-0.3,0-0.4-0.1c-2.3-1.3-4.8-2.1-7.4-2.5c-0.4-0.1-0.7-0.4-0.6-0.8&#xA;&#9;&#9;c0.1-0.4,0.4-0.7,0.8-0.6l0,0c2.8,0.4,5.5,1.3,8,2.7c0.3,0.2,0.4,0.7,0.2,1c0,0,0,0,0,0C261.2,178.2,260.9,178.3,260.7,178.3z"/>
	<line class="st4_transferwise-80" x1="255.3" y1="175.4" x2="263.4" y2="169.1"/>
	<path class="st1_transferwise-80" d="M255.3,176.1c-0.2,0-0.4-0.1-0.6-0.3c-0.2-0.3-0.2-0.7,0.1-1c0,0,0,0,0,0l8.1-6.3c0.3-0.2,0.7-0.2,1,0.1&#xA;&#9;&#9;c0,0,0,0,0,0c0.2,0.3,0.2,0.7-0.1,1c0,0,0,0,0,0l-8.1,6.3C255.6,176.1,255.4,176.1,255.3,176.1L255.3,176.1z"/>
	<line class="st4_transferwise-80" x1="258.5" y1="176.5" x2="266.5" y2="169"/>
	<path class="st1_transferwise-80" d="M258.5,177.2c-0.4,0-0.7-0.3-0.7-0.7c0-0.2,0.1-0.4,0.2-0.5l7.9-7.5c0.3-0.3,0.7-0.3,1,0s0.3,0.7,0,1l0,0&#xA;&#9;&#9;l-8,7.5C258.9,177.1,258.7,177.2,258.5,177.2L258.5,177.2z"/>
	<path class="st0_transferwise-80" d="M248.1,175.6c0,0,4,4.9,3.1,8.6"/>
	<path class="st1_transferwise-80" d="M251.2,184.9c-0.1,0-0.1,0-0.2,0c-0.4-0.1-0.6-0.5-0.5-0.8c0,0,0,0,0,0c0.8-3.4-2.9-8-3-8&#xA;&#9;&#9;c-0.2-0.3-0.2-0.7,0.1-1c0.3-0.2,0.7-0.2,1,0.1c0.2,0.2,4.3,5.2,3.2,9.2C251.8,184.7,251.5,185,251.2,184.9L251.2,184.9z"/>
	<path class="st3_transferwise-80 targetColor" d="M162.2,199.4l-30.7,17l-13.9-24.6l-15.4,7.3c0,0,4.1,28.8,8.8,37.1s40-2.3,53.5-13.3L162.2,199.4z" style="fill: rgb(93, 245, 99);"/>
	<path class="st3_transferwise-80 targetColor" d="M212,200.8l19,8.8l12.3-23.1l13.7,3.6c0,0-8.9,40.4-18.7,39.7s-45.2-12.4-45.2-12.4L212,200.8L212,200.8z" style="fill: rgb(93, 245, 99);"/>
	<path class="st1_transferwise-80" d="M156.3,259.1c-0.4,0-0.7-0.3-0.7-0.7c-0.2-15.4,5-49.8,5.1-50.1c0.1-0.4,0.4-0.6,0.8-0.6&#xA;&#9;&#9;c0.4,0.1,0.6,0.4,0.6,0.8c0,0,0,0,0,0c-0.1,0.3-5.2,34.7-5.1,49.9C157,258.8,156.7,259.1,156.3,259.1&#xA;&#9;&#9;C156.3,259.1,156.3,259.1,156.3,259.1L156.3,259.1L156.3,259.1z"/>
	<path class="st1_transferwise-80" d="M238.3,230.6L238.3,230.6c-6.4-0.1-37.8-10-39.2-10.4c-0.4-0.1-0.6-0.5-0.5-0.9c0.1-0.4,0.5-0.6,0.9-0.5&#xA;&#9;&#9;c0.3,0.1,32.6,10.3,38.8,10.4c0.4,0,0.7,0.3,0.7,0.7c0,0,0,0,0,0C239,230.3,238.7,230.6,238.3,230.6L238.3,230.6z"/>
	<path class="st1_transferwise-80" d="M226.9,218.4c-0.1,0-0.2,0-0.3-0.1c-0.3-0.2-0.5-0.6-0.3-0.9c0,0,0,0,0-0.1l14.1-26.8c0.2-0.4,0.6-0.5,0.9-0.4&#xA;&#9;&#9;c0.4,0.2,0.5,0.6,0.4,0.9c0,0,0,0.1-0.1,0.1l-14.1,26.9C227.4,218.3,227.1,218.4,226.9,218.4L226.9,218.4z"/>
	<path class="st1_transferwise-80" d="M100.9,202.4c-0.1,0-0.1,0-0.2,0c-0.4-0.1-0.6-0.5-0.5-0.8c0,0,0,0,0,0l26.2-104.7c0.1-0.4,0.5-0.6,0.8-0.5&#xA;&#9;&#9;c0.4,0.1,0.6,0.5,0.5,0.8c0,0,0,0,0,0l-26.2,104.7C101.5,202.2,101.2,202.4,100.9,202.4z"/>
	<path class="st0_transferwise-80" d="M110.6,178.2c-2-1.2-4.7,0-6.5,1.4c-0.6,0.4-1.1,1-1.4,1.6c-0.3,0.7-0.2,1.5,0.3,2c0.7,0.4,1.5,0.4,2.2,0.1&#xA;&#9;&#9;l4.6-1.2c-1.1,1.4-1.8,3-2.3,4.8c-0.3,0.9-0.3,2,0,2.9c0.3,1,1.3,1.6,2.3,1.5"/>
	<path class="st1_transferwise-80" d="M109.5,192c-1.2-0.1-2.2-0.9-2.7-2c-0.3-1.1-0.3-2.2,0-3.3c0.3-1.2,0.8-2.4,1.4-3.4l-2.8,0.7&#xA;&#9;&#9;c-0.9,0.4-2,0.3-2.9-0.2c-0.8-0.7-1-1.8-0.6-2.7c0.4-0.7,0.9-1.4,1.6-1.9c1.3-1,4.6-3.2,7.3-1.5c0.3,0.2,0.4,0.7,0.2,1&#xA;&#9;&#9;c-0.2,0.3-0.6,0.4-0.9,0.2c-2-1.2-4.7,0.6-5.7,1.4c-0.5,0.3-0.9,0.8-1.2,1.3c-0.2,0.4-0.1,0.8,0.1,1.1c0.3,0.3,1,0.1,1.6,0l4.6-1.2&#xA;&#9;&#9;c0.4-0.1,0.8,0.1,0.9,0.5c0.1,0.2,0,0.4-0.1,0.6c-1,1.3-1.7,2.9-2.1,4.5c-0.3,0.8-0.3,1.7,0,2.5c0.2,0.6,0.8,1.1,1.5,1.1&#xA;&#9;&#9;c0.4-0.1,0.7,0.2,0.8,0.6c0.1,0.4-0.2,0.7-0.6,0.8c0,0,0,0,0,0L109.5,192L109.5,192z"/>
	<path class="st0_transferwise-80" d="M126.2,100.6c0,0,16.7,9.6,61.8,9.2l-4.1,31.5c0,0-33.1,2.1-65.9-7.8c3.8-3.6,6.8-8,8.7-12.9&#xA;&#9;&#9;C129.6,112.6,126.2,100.6,126.2,100.6L126.2,100.6z"/>
	<path class="st1_transferwise-80" d="M176,142.2c-11.8,0-35.2-1-58.3-8c-0.2-0.1-0.4-0.3-0.5-0.5c-0.1-0.2,0-0.5,0.2-0.7c3.7-3.5,6.7-7.9,8.6-12.6&#xA;&#9;&#9;c2.9-7.6-0.4-19.4-0.5-19.5c-0.1-0.4,0.1-0.8,0.5-0.9c0.2,0,0.3,0,0.5,0.1c0.2,0.1,17,9.5,61.5,9.1c0.2,0,0.4,0.1,0.5,0.2&#xA;&#9;&#9;c0.1,0.2,0.2,0.4,0.2,0.6l-4.1,31.5c0,0.3-0.3,0.6-0.6,0.6C183.8,142,180.9,142.2,176,142.2L176,142.2z M119.2,133.2&#xA;&#9;&#9;c29.6,8.7,59.5,7.6,64,7.4l3.9-30.1c-37.5,0.2-55.1-6.3-59.9-8.6c0.8,3.5,2.5,12.4,0,18.9C125.4,125.4,122.7,129.6,119.2,133.2&#xA;&#9;&#9;L119.2,133.2z"/>
	<path class="st3_transferwise-80 targetColor" d="M161.6,116.3l-9.3-1.1c0.5,1,0.9,1.9,1.3,2.8c0.3,0.4,0.2,0.9-0.1,1.2c0,0-0.1,0.1-0.2,0.1&#xA;&#9;&#9;c-1,0.8-2,1.6-3.2,2.6l5.7,0.7c-0.4,0.7-0.8,1.3-1.2,1.8c-0.1,0.1-0.3,0.2-0.5,0.2l-9.4-1.1c0.3-0.3,0.5-0.5,0.7-0.6&#xA;&#9;&#9;c1.7-1.3,3.3-2.7,5-3.9c0.4-0.2,0.5-0.6,0.3-1c0,0,0-0.1-0.1-0.1c-0.7-1.5-1.4-3.1-2-4.6c-0.1-0.2-0.2-0.5-0.3-0.8l17.2,2&#xA;&#9;&#9;c-0.1,0.3-0.2,0.5-0.3,0.7c-3.6,6.4-7.2,12.9-10.9,19.3c-0.2,0.4-0.6,0.7-1.1,0.6c-0.6-0.1-1.2-0.2-2-0.2L161.6,116.3L161.6,116.3z&#xA;&#9;&#9;" style="fill: rgb(93, 245, 99);"/>
	<path class="st0_transferwise-80" d="M173.1,170.9c-0.5-0.7-1.4-1.2-2.3-1.2c-0.4,0-0.8,0.1-1.1,0.4c-0.3,0.4-0.5,0.8-0.6,1.3c-0.3,1.3-0.3,2.7,0,4&#xA;&#9;&#9;c0.3,1.3,1,2.5,2,3.4c1.1,0.9,2.7,1.1,3.4-0.5C175.5,175.7,174.9,172.9,173.1,170.9L173.1,170.9z"/>
	<path class="st1_transferwise-80" d="M173,180.1c-0.8,0-1.6-0.3-2.2-0.9c-1.1-1-1.9-2.3-2.3-3.8c-0.3-1.4-0.3-2.9,0-4.3c0.1-0.6,0.4-1.2,0.8-1.7&#xA;&#9;&#9;c0.4-0.4,1-0.6,1.6-0.6l0,0c1.1,0,2.1,0.6,2.8,1.5l0,0c2,2.2,2.6,5.3,1.6,8.1c-0.3,0.7-0.9,1.3-1.6,1.5&#xA;&#9;&#9;C173.4,180.1,173.2,180.1,173,180.1L173,180.1z M170.8,170.4L170.8,170.4c-0.2,0-0.4,0.1-0.6,0.2c-0.2,0.3-0.3,0.6-0.4,0.9&#xA;&#9;&#9;c-0.3,1.2-0.3,2.5,0,3.7c0.3,1.2,0.9,2.2,1.8,3c0.4,0.4,1,0.6,1.6,0.5c0.3-0.1,0.6-0.4,0.7-0.7c0.8-2.3,0.3-4.9-1.4-6.7l0,0&#xA;&#9;&#9;C172.2,170.7,171.5,170.4,170.8,170.4L170.8,170.4z"/>
	<path class="st0_transferwise-80" d="M199.9,176.8c2.8-3.1,4.2-9.1,3.8-13c-0.4-4.5-4.7-11-10.1-8.7c-0.4,0.2-0.8,0.4-1.3,0.4&#xA;&#9;&#9;c-0.7,0-1.2-0.6-1.6-1.1c-2.4-2.3-6.1-2.4-9.3-1.6c-3.7,0.7-7,2.6-9.4,5.5c-1.5,1.9-2.3,4.3-2.4,6.7c0,2.2,1.2,3.9,1.4,6.1&#xA;&#9;&#9;c0.4,3.5,0.1,8.7,3.9,10.4c4.5,1.9,11-0.1,15.5-1c2.6-0.5,6.5-1.2,8.7-3C199.4,177.2,199.6,177,199.9,176.8L199.9,176.8z"/>
	<path class="st1_transferwise-80" d="M179.4,183c-1.6,0-3.2-0.2-4.8-0.8c-3.7-1.6-4-5.8-4.2-9.2c0-0.6-0.1-1.2-0.1-1.7c-0.1-0.9-0.3-1.7-0.6-2.6&#xA;&#9;&#9;c-0.4-1.1-0.7-2.3-0.8-3.6c0-2.6,0.9-5.1,2.5-7.2c2.5-3,6-5,9.8-5.7c2.4-0.6,7-1,9.9,1.8l0.2,0.2c0.4,0.3,0.7,0.7,1,0.7&#xA;&#9;&#9;c0.3,0,0.5-0.1,0.7-0.2l0.2-0.1c1.8-0.8,4-0.7,5.7,0.4c3.1,1.8,5,5.8,5.3,8.9c0.4,4-1,10.2-4,13.5l0,0c-0.3,0.3-0.5,0.6-0.9,0.8&#xA;&#9;&#9;c-2.2,1.8-6,2.6-8.7,3.1l-0.2,0.1c-0.8,0.1-1.6,0.3-2.5,0.5C185.2,182.5,182.3,182.9,179.4,183L179.4,183z M184.8,153.2&#xA;&#9;&#9;c-1.1,0-2.2,0.1-3.3,0.4c-3.5,0.7-6.7,2.5-9,5.2c-1.4,1.8-2.2,4-2.2,6.2c0.1,1.1,0.3,2.1,0.7,3.1c0.3,0.9,0.6,1.9,0.7,2.9&#xA;&#9;&#9;c0.1,0.6,0.1,1.2,0.1,1.8c0.2,3.2,0.5,6.8,3.4,8c3.5,1.5,8.5,0.4,12.5-0.5c0.9-0.2,1.8-0.4,2.6-0.5l0.2-0.1&#xA;&#9;&#9;c2.6-0.5,6.2-1.2,8.1-2.8c0.3-0.2,0.5-0.4,0.7-0.7c2.7-3,4-8.8,3.6-12.4c-0.3-2.6-2-6.2-4.6-7.8c-1.3-0.8-3-0.9-4.5-0.3l-0.2,0.1&#xA;&#9;&#9;c-0.4,0.2-0.9,0.4-1.4,0.4c-0.8-0.1-1.4-0.5-1.9-1.1l-0.2-0.2C188.7,153.6,186.7,153,184.8,153.2L184.8,153.2z M199.9,176.8&#xA;&#9;&#9;L199.9,176.8z"/>
	<path class="st0_transferwise-80" d="M179.3,188.1l-2.1,10.3c0,0,3.2,6.5,10,4.9s8-6.9,8-6.9c0.2-3.7,0.4-7.4,0.7-11c0.1-2.3,0.3-4.5,0.4-6.8&#xA;&#9;&#9;c0.1-0.7,0.2-1.4,0.1-2.1c-0.2-0.7-1-1.2-1.5-1.8c-0.6-0.9-1.2-1.8-1.6-2.8c-0.9-1.9-1.6-3.9-2-6.1c-2.6,0.1-5.1-0.6-7.2-2.2&#xA;&#9;&#9;c-0.8,1.3,1.5,2.6,1.3,4c-2.5-0.4-5.6-1.3-7.4-3.2c-0.9-0.1-4.3,5.9-4.9,8.3c-0.7,3.1-0.9,6.3-0.4,9.5&#xA;&#9;&#9;C173.7,187.6,179.3,188,179.3,188.1L179.3,188.1z"/>
	<path class="st1_transferwise-80" d="M185.1,204.2c-5.7,0-8.5-5.5-8.5-5.6c-0.1-0.1-0.1-0.3-0.1-0.4l2-9.6c-1.7-0.4-5.7-1.7-6.4-6.2&#xA;&#9;&#9;c-0.5-3.3-0.3-6.6,0.4-9.8c0.4-1.6,3.8-9.1,5.6-8.8c0.2,0,0.3,0.1,0.4,0.2c1.1,1.2,3.1,2.1,5.9,2.7c-0.1-0.2-0.3-0.4-0.4-0.6&#xA;&#9;&#9;c-0.5-0.8-1.2-1.8-0.6-2.9c0.1-0.2,0.3-0.3,0.5-0.3c0.2,0,0.4,0,0.6,0.1c1.9,1.5,4.3,2.2,6.7,2.1c0.4,0,0.7,0.2,0.7,0.6&#xA;&#9;&#9;c0.4,2,1,4,1.9,5.9c0.4,0.9,0.9,1.8,1.5,2.6c0.1,0.2,0.3,0.4,0.5,0.5c0.5,0.4,0.8,0.9,1.1,1.5c0.1,0.6,0.1,1.2,0,1.8&#xA;&#9;&#9;c0,0.2-0.1,0.4-0.1,0.6l-1.1,17.8c0,0.1-1.2,5.8-8.5,7.5C186.6,204.1,185.9,204.2,185.1,204.2L185.1,204.2z M177.9,198.2&#xA;&#9;&#9;c0.6,1.1,3.5,5.7,9.1,4.3c6.3-1.5,7.4-6.3,7.5-6.3l1.1-17.7c0-0.2,0-0.4,0.1-0.7c0.1-0.4,0.1-0.8,0.1-1.2c-0.2-0.3-0.4-0.7-0.7-0.9&#xA;&#9;&#9;c-0.2-0.2-0.4-0.4-0.6-0.7c-0.6-0.9-1.2-1.9-1.7-2.9c-0.9-1.8-1.5-3.7-1.9-5.6c-2,0-3.9-0.5-5.6-1.5l0.1,0.2&#xA;&#9;&#9;c0.6,0.7,0.9,1.5,0.9,2.4c0,0.2-0.1,0.4-0.3,0.5c-0.2,0.1-0.3,0.2-0.5,0.1c-3.4-0.6-5.8-1.6-7.3-3c-1.8,2.3-3.2,4.8-4.1,7.6&#xA;&#9;&#9;c-0.7,3-0.9,6.2-0.4,9.2c0.7,4.7,5.7,5.2,5.9,5.2c0.2,0,0.4,0.1,0.5,0.3c0.1,0.2,0.2,0.4,0.1,0.6L177.9,198.2L177.9,198.2z"/>
	<path class="st1_transferwise-80" d="M178.2,193.4c2.4,0.5,4.8-0.3,6.6-2c3-2.9,2.8-5.3,2.8-5.3c-2.4,1.7-5.3,2.4-8.2,1.9L178.2,193.4L178.2,193.4z&#xA;&#9;&#9;"/>
	<path class="st1_transferwise-80" d="M179.6,194.3c-0.5,0-1.1,0-1.6-0.2c-0.4-0.1-0.6-0.5-0.5-0.8l1.1-5.4c0.1-0.4,0.4-0.6,0.8-0.5&#xA;&#9;&#9;c2.7,0.4,5.4-0.2,7.7-1.8c0.2-0.2,0.5-0.2,0.7-0.1c0.2,0.1,0.4,0.3,0.4,0.6c0,0.1,0.2,2.8-3,5.9&#xA;&#9;&#9;C183.7,193.5,181.7,194.3,179.6,194.3L179.6,194.3z M179,192.9c1.9,0.2,3.9-0.5,5.3-1.9c1.1-0.9,1.9-2.1,2.3-3.5&#xA;&#9;&#9;c-2.1,1.1-4.4,1.6-6.8,1.3L179,192.9z"/>
	<path class="st0_transferwise-80" d="M184.9,171.2c0,0-3.8,5.2-3,6.2s3.2,0.4,3.2,0.4"/>
	<path class="st1_transferwise-80" d="M183.8,178.7c-0.9,0.1-1.7-0.2-2.4-0.8c-0.8-0.9,0.2-3.3,2.9-7c0.2-0.3,0.7-0.4,1-0.2c0.3,0.2,0.4,0.7,0.2,1&#xA;&#9;&#9;c-1.7,2.3-3,4.8-2.9,5.4c0.3,0.3,1.6,0.3,2.5,0.1c0.4,0,0.7,0.2,0.8,0.6c0,0.3-0.2,0.6-0.5,0.7&#xA;&#9;&#9;C184.8,178.6,184.3,178.7,183.8,178.7L183.8,178.7z"/>
	
		<ellipse transform="matrix(0.9988 -4.902409e-02 4.902409e-02 0.9988 -8.1551 9.4812)" class="st1_transferwise-80" cx="189.2" cy="171" rx="0.9" ry="1.2"/>
	
		<ellipse transform="matrix(0.2475 -0.9689 0.9689 0.2475 -29.3746 303.7248)" class="st1_transferwise-80" cx="180.8" cy="170.8" rx="1.2" ry="0.9"/>
	<path class="st1_transferwise-80" d="M182.8,185.9c-1.1,0-2.1-0.4-2.8-1.2c-1.6-2-0.9-5.2-0.9-5.3c0.1-0.3,0.4-0.6,0.7-0.5c8.2,0.4,8.2,0.4,8.5,0.8&#xA;&#9;&#9;c0.1,0.2,0.2,0.4,0.1,0.6c-0.2,1.3-0.7,2.5-1.5,3.5C186.1,185,184.6,185.8,182.8,185.9L182.8,185.9z M180.5,180.3&#xA;&#9;&#9;c-0.2,1.2,0,2.5,0.7,3.6c0.5,0.5,1.1,0.7,1.8,0.7c1.2-0.1,2.4-0.7,3.1-1.6c0.5-0.7,0.8-1.4,1.1-2.2&#xA;&#9;&#9;C185.6,180.5,182.7,180.4,180.5,180.3L180.5,180.3z M187.9,180L187.9,180z M187.9,180L187.9,180z"/>
	<path class="st0_transferwise-80" d="M194.1,176c-0.1-2.2,2.2-5.3,4.7-3.9c0.9,0.6,1.4,1.5,1.6,2.5c1.1,4.6-2.5,6.2-5,7.3"/>
	<path class="st1_transferwise-80" d="M195.5,182.6c-0.3,0-0.5-0.2-0.7-0.4c-0.2-0.3,0-0.7,0.3-0.9c0,0,0,0,0,0c2.5-1.1,5.5-2.5,4.6-6.5&#xA;&#9;&#9;c-0.1-0.8-0.6-1.5-1.3-2c-0.6-0.4-1.3-0.4-1.9,0c-1.1,0.7-1.7,1.9-1.7,3.2c0,0.4-0.3,0.7-0.7,0.7c0,0,0,0,0,0l0,0&#xA;&#9;&#9;c-0.4,0-0.7-0.3-0.7-0.7c0-1.8,0.9-3.5,2.4-4.4c1-0.6,2.3-0.7,3.3-0.1c1,0.7,1.7,1.7,1.9,2.9c1.2,5.2-2.9,7-5.3,8.1&#xA;&#9;&#9;C195.7,182.5,195.6,182.5,195.5,182.6L195.5,182.6z"/>
</g>
</svg>