<svg version="1.1" id="Layer_1" xmlns="http://www.w3.org/2000/svg" xmlns:xlink="http://www.w3.org/1999/xlink" x="0px" y="0px" viewBox="0 0 500 500" style="width: 188px;" xml:space="preserve" data-imageid="resting-75" imageName="Resting" class="illustrations_image">
<style type="text/css">
	.st0_resting-75{fill:#D1D3D4;}
	.st1_resting-75{fill:#FFFFFF;}
	.st2_resting-75{fill:#231F20;}
	.st3_resting-75{fill:#68E1FD;}
	.st4_resting-75{fill:none;}
</style>
<path id="Floor_resting-75" class="st0_resting-75" d="M467.7,331H50.2c-0.4,0-0.7-0.2-0.8-0.6c0-0.4,0.2-0.7,0.6-0.8c0.1,0,0.1,0,0.2,0h417.4&#xA;&#9;c0.4,0,0.7,0.2,0.8,0.6c0,0.4-0.2,0.7-0.6,0.8C467.8,331,467.7,331,467.7,331z"/>
<g id="Bean_Bag_resting-75">
	<path class="st1_resting-75" d="M372.5,304.8c0.2,9.2-1.8,18.3-5.8,26.6c-11.6,24.2-38.9,39.2-65.7,45.5c-22.5,5.2-45.8,5.5-68.9,4.5&#xA;&#9;&#9;c-24.5-1-50-3.7-70.7-16.9c-19.5-12.6-34-31.5-41.3-53.6c-8.4-26.3-11-54-12.2-81.5c-0.4-6.5-0.4-13.1,0.1-19.6&#xA;&#9;&#9;c0.2-2.5,0.6-5,1.1-7.5c2.3-10.9,7.6-20.9,15.4-28.9c1.8-1.8,3.6-3.6,5.6-5.2c22.8-19,58.5-23.7,83.8-6.9&#xA;&#9;&#9;c17.8,11.8,35.8,20.3,48.2,38.7c3.8,5.6,6.9,11.5,10.6,17.1c10.9,15.9,26.4,28.1,44.5,34.7c4.6,1.6,9.3,2.8,14.1,3.5&#xA;&#9;&#9;c13,2.2,25.4,3.2,33.2,16.7c5.3,9,7.2,19.7,7.8,30.2c0,0.7,0.1,1.4,0.1,2.1C372.5,304.4,372.5,304.6,372.5,304.8z"/>
	<path class="st2_resting-75" d="M178.2,150.8c12.7-0.2,25.1,3.4,35.7,10.3c17.8,11.8,35.8,20.3,48.2,38.7c3.8,5.6,6.9,11.5,10.6,17.1&#xA;&#9;&#9;c10.9,15.9,26.4,28.1,44.5,34.7c4.6,1.6,9.3,2.8,14.1,3.5c13,2.2,25.4,3.2,33.2,16.7c5.3,9,7.2,19.7,7.8,30.2&#xA;&#9;&#9;c0,0.7,0.1,1.4,0.1,2.1c0,0.2,0,0.4,0,0.7c0.2,9.2-1.8,18.3-5.8,26.6c-11.6,24.2-38.9,39.2-65.7,45.5c-16.1,3.8-32.7,4.9-49.3,4.9&#xA;&#9;&#9;c-6.5,0-13.1-0.2-19.6-0.5c-24.5-1-50-3.7-70.7-16.9c-19.5-12.6-34-31.5-41.3-53.6c-8.4-26.3-11-54-12.2-81.5&#xA;&#9;&#9;c-0.4-6.5-0.4-13.1,0.1-19.6c0.2-2.5,0.6-5,1.1-7.5c2.3-10.9,7.6-20.9,15.4-28.9c1.8-1.8,3.6-3.6,5.6-5.2&#xA;&#9;&#9;C143.7,156.9,160.7,150.8,178.2,150.8 M178.2,149.4c-17.9,0-35.2,6.2-49,17.5c-2,1.7-3.9,3.5-5.7,5.4c-7.9,8.2-13.4,18.5-15.8,29.6&#xA;&#9;&#9;c-0.5,2.5-0.9,5.1-1.1,7.7c-0.5,6.6-0.5,13.2-0.1,19.8c1.1,24.8,3.4,54,12.3,81.9c6.9,21.6,22.5,42,41.9,54.3&#xA;&#9;&#9;c20.8,13.3,46.6,16.1,71.4,17.1c7.3,0.3,13.7,0.5,19.6,0.5c19.3,0,35.1-1.6,49.6-5c31.8-7.4,56.1-24.2,66.7-46.2&#xA;&#9;&#9;c4.1-8.5,6.1-17.8,5.9-27.2v-0.4c0-0.1,0-0.2,0-0.3c0-0.7,0-1.4-0.1-2.1v0c-0.6-12.7-3.3-22.8-8-30.8c-7.6-13-19.1-14.9-31.3-16.8&#xA;&#9;&#9;l-3-0.5c-4.7-0.7-9.4-1.8-13.9-3.4c-17.8-6.6-33.1-18.5-43.9-34.2c-1.8-2.7-3.5-5.6-5.2-8.4s-3.5-5.9-5.4-8.7&#xA;&#9;&#9;c-10.1-14.9-23.6-23.4-37.9-32.3c-3.5-2.2-7.2-4.5-10.7-6.8C203.9,153,191.2,149.3,178.2,149.4L178.2,149.4z"/>
	<path class="st0_resting-75" d="M263.2,232.6c-0.1,0-0.1,0-0.2,0c-0.4-0.1-0.6-0.4-0.5-0.8c0,0,0,0,0,0c1.3-5.5,8.3-8.6,8.6-8.7&#xA;&#9;&#9;c0.4-0.1,0.8,0,0.9,0.4c0.2,0.3,0,0.8-0.3,0.9c0,0,0,0,0,0c-0.1,0-6.7,3-7.8,7.8C263.8,232.4,263.5,232.6,263.2,232.6z"/>
	<path class="st0_resting-75" d="M218.3,316.5c-0.1,0-0.2,0-0.3-0.1c-0.3-0.2-0.5-0.6-0.3-0.9c0,0,0,0,0,0c4.8-9.4,13-17.2,17.9-21.3&#xA;&#9;&#9;c-2,0.7-4.4,1.5-6.9,2.3c-10.5,3.5-23.7,7.8-25.6,13.8c-0.1,0.4-0.5,0.6-0.8,0.5s-0.6-0.5-0.5-0.8c0,0,0-0.1,0-0.1&#xA;&#9;&#9;c2.1-6.8,15.6-11.2,26.4-14.7c3.9-1.1,7.7-2.5,11.5-4.2c0.3-0.2,0.8,0,0.9,0.3c0.1,0.3,0.1,0.7-0.2,0.9c-0.1,0.1-14.6,10.3-21.6,24&#xA;&#9;&#9;C218.8,316.4,218.6,316.5,218.3,316.5z"/>
	<path class="st0_resting-75" d="M309.2,308.1c-0.3,0-0.5-0.2-0.6-0.4c-0.2-0.3,0-0.8,0.3-0.9c0,0,0,0,0,0c9.9-4.9,21.5-9.5,32.6-6.6&#xA;&#9;&#9;c1.2,0.2,2.3,0.9,3.1,1.9c0.2,0.3,0,0.8-0.3,0.9c-0.3,0.2-0.7,0.1-0.9-0.2c-0.6-0.7-1.3-1.1-2.2-1.2c-10.7-2.8-22,1.8-31.7,6.5&#xA;&#9;&#9;C309.4,308.1,309.3,308.1,309.2,308.1z"/>
	<path class="st0_resting-75" d="M203.4,258.4c-0.1,0-0.2,0-0.3-0.1c-0.2-0.1-0.4-0.3-0.4-0.6c-0.9-1.4-11.4-9.7-25.5-13.7&#xA;&#9;&#9;c-13.2-3.7-24.8-2.5-34.4,3.8c-0.3,0.2-0.8,0.1-1-0.2c-0.2-0.3-0.1-0.8,0.2-1l0,0c24.2-15.7,54.4,3.5,60.6,9&#xA;&#9;&#9;c1.3,1.2,1.6,1.8,1.4,2.3C203.9,258.2,203.7,258.4,203.4,258.4z"/>
	<path class="st0_resting-75" d="M171.4,304.4c-0.2,0-0.4-0.1-0.5-0.2c-0.3-0.3-0.3-0.7,0-1c27.3-28.8,46.2-20.5,46.9-20.1&#xA;&#9;&#9;c0.3,0.2,0.5,0.6,0.3,0.9c-0.2,0.3-0.6,0.5-0.9,0.3l0,0c-0.2-0.1-18.9-8.2-45.4,19.9C171.8,304.3,171.6,304.4,171.4,304.4z"/>
</g>
<g id="Character_resting-75">
	<path class="st1_resting-75" d="M335.1,223.4l7.6-15.9c0,0,52.9,18.8,60,26.3s8.1,12.5,16.8,12.2h0.1c4.2-0.6,8.3-4.4,11.5-7&#xA;&#9;&#9;c5.8-4.7,11.3-9.8,16.5-15.2c5.1-5.1,9.9-10.6,14.2-16.4c1.6-2.2,4.1-5.3,4.4-8c0.4-3.4-2.6-8.5-5.5-10.1&#xA;&#9;&#9;c-7.3-4.1-19.5,7.6-25.2,11.2c-3.2,2.1-8.7,7.2-12.5,7.3c-2.1,0-5.3-1.9-7.2-2.6c-10.1-3.9-20.2-8.1-30.3-12.2&#xA;&#9;&#9;c-12-4.9-24-9.7-36.2-14.2c-4.5-1.6-8.9-3.3-13.5-4.6c-1.9-0.6-4.9-1.9-6.9-1.3c-6.4,1.9-26.7,34.6-26.7,34.6"/>
	<path class="st2_resting-75" d="M418.8,246.6c-6.3,0-8.7-2.9-12.2-7.3c-1.2-1.5-2.6-3.2-4.4-5.1c-6.5-6.9-53.3-23.8-59.1-25.9l-7.4,15.4&#xA;&#9;&#9;c-0.1,0.4-0.5,0.5-0.9,0.4s-0.5-0.5-0.4-0.9c0,0,0-0.1,0-0.1l7.6-15.9c0.2-0.3,0.5-0.5,0.9-0.4c2.2,0.8,53.2,18.9,60.3,26.4&#xA;&#9;&#9;c1.8,1.9,3.2,3.7,4.5,5.2c3.6,4.5,5.7,7,11.8,6.8c3.5-0.5,7.1-3.4,9.9-5.8l1.3-1.1c5.8-4.7,11.3-9.8,16.4-15.1&#xA;&#9;&#9;c5.1-5.1,9.8-10.6,14.1-16.4l0.7-1c1.5-2,3.3-4.5,3.6-6.7c0.4-3.1-2.6-7.9-5.2-9.4c-5.4-3-14.4,3.7-20.3,8.1&#xA;&#9;&#9;c-1.6,1.2-3,2.3-4.2,3.1c-0.9,0.5-1.9,1.3-3,2.1c-3.2,2.4-6.9,5.2-9.9,5.3c-1.7,0-3.8-1-5.6-1.8c-0.7-0.3-1.3-0.6-1.9-0.8&#xA;&#9;&#9;c-7.1-2.8-14.3-5.7-21.3-8.6c-3-1.2-6-2.4-9-3.6c-11.7-4.8-23.9-9.7-36.1-14.2c-4.1-1.5-8.8-3.2-13.4-4.6c-0.4-0.1-0.8-0.3-1.3-0.4&#xA;&#9;&#9;c-1.7-0.6-3.8-1.3-5.2-0.9c-5,1.5-20.7,25.3-26.3,34.3c-0.2,0.3-0.6,0.5-1,0.3c0,0,0,0,0,0c-0.3-0.2-0.4-0.6-0.2-1c0,0,0,0,0,0&#xA;&#9;&#9;c0.8-1.4,20.5-33,27.1-34.9c1.8-0.5,4.1,0.3,6,0.9c0.4,0.1,0.9,0.3,1.2,0.4c4.7,1.4,9.4,3.1,13.5,4.6c12.3,4.5,24.5,9.5,36.2,14.2&#xA;&#9;&#9;l9,3.6c7,2.9,14.2,5.8,21.3,8.6c0.6,0.2,1.2,0.5,1.9,0.9c1.6,0.8,3.6,1.7,5,1.7h0.1c2.5-0.1,6.1-2.8,9-5c1.1-0.9,2.2-1.6,3.1-2.2&#xA;&#9;&#9;c1.1-0.7,2.5-1.8,4.1-3c6.6-5,15.6-11.7,21.8-8.3c3,1.7,6.4,7,5.9,10.8c-0.3,2.6-2.3,5.2-3.9,7.4l-0.7,1&#xA;&#9;&#9;c-4.3,5.9-9.1,11.4-14.2,16.5c-5.2,5.4-10.7,10.5-16.5,15.2l-1.3,1.1c-3,2.5-6.7,5.5-10.6,6.1h-0.2L418.8,246.6z"/>
	<path class="st3_resting-75 targetColor" d="M196.3,182.3l-16.9,2.3l-25.6-19.8l11.9-5.3l-5.9-15c0,0-42.1-10-49.2,0.4c-18.6,27.5,23.6,43.3,51.9,73&#xA;&#9;&#9;c0,0,25.3,45.2,58.8,75.4c0,0,30.3-21,50.4-48l-21.2-54.8c0,0,16.2-64.7,8.7-71.6s-57,13.9-57,13.9l9.4,12.1l18.5-0.4l-3.2,17.8&#xA;&#9;&#9;C227,162.3,205,170.9,196.3,182.3z" style="fill: rgb(93, 245, 99);"/>
	<path class="st1_resting-75" d="M157.2,138.3c2.4-2,5.8-2.8,8.5-1.3c-1.5-2-1.4-4.9-0.3-7.2c1.2-2.2,2.9-4.1,4.9-5.7c2.6-2.4,5.6-4.3,8.9-5.6&#xA;&#9;&#9;c8.6-3,18.2,1,25.5,6.6c3.9,3,8.5,7.6,8.7,12.8c0.2,4.9-4.4,11.6-6.8,15.7c-3.4,5.9-7.8,11.4-13.5,15c-15.3,9.6-33.6,0-38.5-16.4&#xA;&#9;&#9;c-1.1-3.9-1.4-8.2,0.7-11.7C155.9,139.6,156.5,138.9,157.2,138.3z"/>
	<path class="st2_resting-75" d="M180.3,173.1c-3,0-6-0.6-8.8-1.6c-8.5-3.3-14.9-10.4-17.5-19.1c-1.4-4.7-1.1-9.1,0.8-12.3&#xA;&#9;&#9;c0.5-0.9,1.2-1.7,2-2.4l0,0c2-1.8,4.8-2.6,7.5-2.1c-0.6-2.1-0.4-4.3,0.5-6.2c1.3-2.3,3-4.3,5.1-5.9c2.7-2.4,5.8-4.4,9.1-5.7&#xA;&#9;&#9;c7.6-2.7,17.1-0.2,26.1,6.7c4,3.1,8.8,7.9,9,13.3c0.2,4.4-3.3,10.1-5.8,14.2c-0.4,0.6-0.8,1.2-1.1,1.8c-4.1,7.1-8.6,12.1-13.7,15.3&#xA;&#9;&#9;C189.6,171.7,185,173.1,180.3,173.1z M157.7,138.8c-0.7,0.6-1.2,1.2-1.7,2c-2.3,3.9-1.4,8.7-0.6,11.2c2.4,8.3,8.6,15,16.6,18.2&#xA;&#9;&#9;c6.9,2.7,14.7,1.9,20.9-2.2c4.9-3.1,9.3-7.9,13.3-14.8l1.1-1.8c2.4-4,5.7-9.5,5.6-13.4c-0.2-4.9-4.7-9.4-8.5-12.3&#xA;&#9;&#9;c-4.1-3.1-14.7-10.1-24.8-6.5c-3.2,1.3-6.2,3.1-8.7,5.4c-1.9,1.5-3.6,3.3-4.7,5.5c-1.1,2-1,4.5,0.2,6.5c0.2,0.3,0.2,0.6,0,0.9&#xA;&#9;&#9;c-0.2,0.2-0.6,0.3-0.9,0.1C162.9,136.1,159.7,137.1,157.7,138.8L157.7,138.8z"/>
	<path class="st1_resting-75" d="M214,173.6l7.3,11.6c0,0,1.6,9.2-10.8,12s-18-5.5-18-5.5l-15.8-23.4c0,0,6-8.5-5.3-25.2&#xA;&#9;&#9;c11-0.6,21.7-4.2,30.9-10.4c0,0,14.7,16.9,17.7,26.1S214,173.6,214,173.6z"/>
	<path class="st2_resting-75" d="M205.5,198.5c-5.3,0.1-10.3-2.2-13.6-6.4l-15.8-23.4c-0.2-0.2-0.2-0.6,0-0.8c0-0.1,5.6-8.4-5.3-24.4&#xA;&#9;&#9;c-0.2-0.3-0.1-0.8,0.2-1c0.1-0.1,0.2-0.1,0.4-0.1c10.9-0.6,21.4-4.2,30.5-10.3c0.3-0.2,0.7-0.1,0.9,0.1&#xA;&#9;&#9;c0.6,0.7,14.8,17.1,17.8,26.4c2.6,8.2-3.6,13.6-5.6,15.1l7,11c0,0.1,0.1,0.2,0.1,0.2c0,0.1,1.6,9.9-11.4,12.8&#xA;&#9;&#9;C208.9,198.3,207.2,198.5,205.5,198.5z M177.5,168.3l15.6,23c0.2,0.3,5.4,7.9,17.2,5.2c11-2.5,10.4-10,10.3-11.1l-7.2-11.4&#xA;&#9;&#9;c-0.1-0.2-0.1-0.3-0.1-0.5c0-0.2,0.1-0.3,0.3-0.4c0.4-0.2,8.4-5.2,5.6-13.9c-2.6-8.2-14.8-22.7-17.1-25.4&#xA;&#9;&#9;c-8.8,5.7-19,9.2-29.5,10.1C182,158.2,178.6,166.4,177.5,168.3L177.5,168.3z"/>
	<path class="st1_resting-75" d="M186.4,173.1c-1.7,2-4.1,3.3-6.7,3.5c-3.7,0.2-7.2-1.5-9.4-4.6c-0.8-1.1-1.5-2.3-1.8-3.6&#xA;&#9;&#9;c-0.3-1.3,0-2.7,0.8-3.8c1-1.3,2.7-1.7,4.3-2.1c2.3-0.6,3.2,0.3,5.3,0.9c-0.2,0-0.6-0.3-0.8-0.4"/>
	<path class="st2_resting-75" d="M178.9,177.4c-3.6-0.1-7-1.9-9.1-4.9c-0.9-1.1-1.6-2.5-1.9-3.9c-0.3-1.5,0-3.1,0.9-4.4c1.2-1.5,3.2-2,4.6-2.4&#xA;&#9;&#9;c1.4-0.4,2.8-0.2,4.1,0.4l0.4,0.1c0.1,0,0.2,0,0.3,0c0.2,0,0.4,0.1,0.6,0.2l0.2,0.1l0,0c0.4,0.1,0.6,0.5,0.5,0.8&#xA;&#9;&#9;c-0.1,0.4-0.4,0.6-0.8,0.6h-0.2c-0.6-0.2-1.1-0.4-1.6-0.5c-1-0.5-2.2-0.6-3.3-0.3c-1.6,0.4-3,0.8-3.9,1.9c-0.7,0.9-0.9,2.1-0.6,3.3&#xA;&#9;&#9;c0.3,1.2,0.9,2.3,1.6,3.3c2,2.9,5.3,4.5,8.7,4.3c2.4-0.2,4.7-1.4,6.2-3.3c0.2-0.3,0.7-0.4,1-0.1c0.3,0.2,0.4,0.7,0.1,1c0,0,0,0,0,0&#xA;&#9;&#9;c-1.8,2.2-4.4,3.5-7.2,3.8C179.5,177.4,179.2,177.4,178.9,177.4z"/>
	<path class="st2_resting-75" d="M220.2,183.4c0,0-5.1,2.4-12.3,0.2s-8.8-6.4-8.8-6.4s8.4,1.5,14.9-3.6L220.2,183.4z"/>
	<path class="st2_resting-75" d="M214,185.3c-2.2,0-4.3-0.3-6.4-1c-7.5-2.4-9.2-6.7-9.3-6.8c-0.1-0.2,0-0.5,0.1-0.7c0.2-0.2,0.4-0.3,0.7-0.2&#xA;&#9;&#9;c0.1,0,8.2,1.4,14.4-3.4c0.2-0.1,0.4-0.2,0.6-0.1c0.2,0,0.4,0.1,0.5,0.3l6.2,9.8c0.2,0.3,0.1,0.8-0.2,1c0,0,0,0-0.1,0&#xA;&#9;&#9;C218.4,184.9,216.2,185.3,214,185.3z M200.4,178c1,1.3,3.2,3.5,7.7,4.9c3.6,1.2,7.4,1.3,11.1,0.1l-5.4-8.5&#xA;&#9;&#9;C209.8,177.2,205.1,178.4,200.4,178z"/>
	<path class="st1_resting-75" d="M196.3,148.5c0,0,10.3,5.4,9.8,7.6s-4.9,3.3-4.9,3.3"/>
	<path class="st2_resting-75" d="M201.2,160.2c-0.4,0-0.7-0.3-0.7-0.7c0-0.3,0.2-0.6,0.5-0.7c1-0.2,4-1.3,4.4-2.8c0.2-0.9-4.3-4.2-9.4-6.9&#xA;&#9;&#9;c-0.3-0.2-0.5-0.6-0.3-0.9c0.2-0.3,0.6-0.5,0.9-0.3c3.3,1.7,10.8,6,10.1,8.4s-4.9,3.7-5.4,3.8L201.2,160.2z"/>
	<ellipse transform="matrix(0.916 -0.4011 0.4011 0.916 -44.9629 88.6077)" class="st2_resting-75" cx="189.1" cy="151.7" rx="1.6" ry="2.3"/>
	
		<ellipse transform="matrix(0.7571 -0.6533 0.6533 0.7571 -45.1805 167.3941)" class="st2_resting-75" cx="202.5" cy="144.5" rx="1.6" ry="2.3"/>
	<path class="st2_resting-75" d="M207.4,171.1c-1.5,0-3-0.3-4.3-1c-2-1-3.8-2.5-5.1-4.4l0,0c-0.1-0.2-0.2-0.4-0.1-0.6c0.1-0.4,0.1-0.6,13-7.7&#xA;&#9;&#9;c0.3-0.2,0.7-0.1,0.9,0.2c0.1,0.2,3.7,4.6,2.8,8.9c-0.5,1.7-1.7,3.1-3.4,3.9C210,170.9,208.7,171.1,207.4,171.1z M199.6,165.4&#xA;&#9;&#9;c1.1,1.4,2.5,2.6,4.1,3.4c2.1,1.1,4.6,1.2,6.8,0.2c1.3-0.5,2.2-1.6,2.6-2.9c0.6-2.9-1.3-6.1-2.2-7.2&#xA;&#9;&#9;C207.1,161.1,201.4,164.3,199.6,165.4L199.6,165.4z"/>
	<path class="st2_resting-75" d="M203.4,169.4c5,2.4,9.8-0.2,10.4-3.1c-1.7-1.1-3.8-1.9-5.8-1.2C206.1,165.9,204.4,167.5,203.4,169.4z"/>
	<path class="st2_resting-75" d="M207.4,171.1c-1.5,0-3-0.3-4.3-1c-0.2-0.1-0.3-0.2-0.4-0.4c-0.1-0.2,0-0.4,0.1-0.6c1.1-2.1,2.9-3.8,5.1-4.7&#xA;&#9;&#9;c1.8-0.7,4-0.2,6.4,1.3c0.2,0.2,0.4,0.5,0.3,0.7c-0.5,1.7-1.7,3.1-3.4,3.8C210,170.8,208.7,171.1,207.4,171.1z M204.4,169.1&#xA;&#9;&#9;c2,0.8,4.2,0.8,6.1-0.1c1.1-0.5,2-1.3,2.5-2.4c-1.8-1.1-3.4-1.4-4.7-0.9C206.7,166.4,205.3,167.6,204.4,169.1L204.4,169.1z"/>
	<path class="st2_resting-75" d="M271.7,245.3c0,0,26.8-46.6,28.6-47.5s42.3,25.3,42.3,25.3l-27.1,57.6C315.6,280.7,266.9,270.6,271.7,245.3z"/>
	<path class="st2_resting-75" d="M315.6,281.4h-0.1c-8.3-1.9-16.3-4.6-23.9-8.2c-15.5-7.6-22.5-17.2-20.5-27.9c0-0.1,0-0.2,0.1-0.2&#xA;&#9;&#9;c6.3-11,27.1-46.9,28.9-47.8s24.4,13.3,43,25.3c0.3,0.2,0.4,0.6,0.2,0.9L316.2,281C316.1,281.2,315.9,281.4,315.6,281.4z&#xA;&#9;&#9; M272.4,245.6c-4.3,22.8,37.5,33.1,42.8,34.3l26.6-56.5c-14.8-9.6-38.4-24.3-41.2-24.8C298.7,200.4,282.8,227.5,272.4,245.6&#xA;&#9;&#9;L272.4,245.6z"/>
	<path class="st1_resting-75" d="M320.6,245.8c0,0,60.3-25.4,68.5-17.9s17.3,118.2,19.6,119.3c9.9,4.5,27.1,11.3,27.7,11.3&#xA;&#9;&#9;c3.2,0.1,18.5,1.2,12.7,7.6c-4.7,5.2-11.3,3.5-17.6,3.8c-8.3,0.4-10.1,0.7-18.4,0.9c-7.6,0.2-15.1,0.3-22.7,0.4&#xA;&#9;&#9;c-4.4,0-8.3-2.8-9.6-7.1l-20.3-92.5l-26.2,12.9L320.6,245.8z"/>
	<path class="st2_resting-75" d="M390.4,372c-4.7,0-8.8-3.1-10.1-7.6l-20.1-91.7l-25.4,12.5c-0.2,0.1-0.4,0.1-0.6,0c-0.2-0.1-0.3-0.2-0.4-0.4&#xA;&#9;&#9;L320,246c-0.1-0.4,0.1-0.7,0.4-0.9c2.5-1,60.8-25.4,69.3-17.8c5.1,4.6,10.1,43.7,15.2,86.9c1.9,15.7,3.6,30.5,4.4,32.3&#xA;&#9;&#9;c9.8,4.4,26.3,11,27.4,11.2c2.9,0.1,12.8,0.8,14.4,4.6c0.5,1.3,0.1,2.7-1.2,4.2c-3.8,4.3-8.9,4.1-13.8,4c-1.4,0-2.9-0.1-4.3,0&#xA;&#9;&#9;c-2.8,0.1-4.9,0.3-6.8,0.4c-3.6,0.2-6.2,0.4-11.7,0.5c-7.7,0.2-15.4,0.4-22.7,0.4L390.4,372z M360.7,271c0.1,0,0.2,0,0.3,0.1&#xA;&#9;&#9;c0.2,0.1,0.3,0.3,0.4,0.5l20.3,92.4c1.2,3.9,4.7,6.5,8.8,6.5h0.1c7.3-0.1,15-0.2,22.7-0.4c5.4-0.1,8-0.3,11.6-0.5&#xA;&#9;&#9;c1.9-0.1,3.9-0.2,6.8-0.4c1.5-0.1,3,0,4.4,0c4.8,0.1,9.3,0.2,12.7-3.6c1-1.1,1.3-2,1-2.7c-0.9-2.2-7.5-3.5-13.2-3.7&#xA;&#9;&#9;c-0.9,0-19.2-7.4-28-11.4c-1-0.5-1.7-4.8-5.1-33.4c-3.8-32.4-9.6-81.4-14.8-86c-6.4-5.8-50.1,10.6-67.2,17.8l13.4,37.4l25.4-12.5&#xA;&#9;&#9;C360.5,271,360.6,270.9,360.7,271L360.7,271z"/>
	<path class="st2_resting-75" d="M221.4,293.3c0,0,25.9,31.5,54.3,31.5s71-39.9,71-39.9l-22.5-48.5l-52.4,8.8&#xA;&#9;&#9;C271.7,245.3,227,281.9,221.4,293.3z"/>
	<path class="st2_resting-75" d="M275.6,325.5c-14.9,0-29-8.7-38.2-15.9c-6-4.7-11.6-10-16.6-15.9c-0.2-0.2-0.2-0.5-0.1-0.8&#xA;&#9;&#9;c5.7-11.4,48.7-46.7,50.6-48.2c0.1-0.1,0.2-0.1,0.3-0.1l52.4-8.8c0.3-0.1,0.6,0.1,0.8,0.4l22.5,48.5c0.1,0.3,0.1,0.6-0.1,0.8&#xA;&#9;&#9;c-7.9,7.2-16.2,13.9-24.9,20C303.2,318.8,287.5,325.5,275.6,325.5z M222.2,293.2c2.9,3.4,27.3,30.9,53.4,30.9&#xA;&#9;&#9;c26.4,0,65.9-35.5,70.1-39.3l-22-47.5L272,246C269.3,248.2,228.3,281.9,222.2,293.2L222.2,293.2z"/>
	<path class="st1_resting-75" d="M265.2,258.4c-0.4,0-0.7-0.3-0.7-0.7c0-0.3,0.2-0.6,0.5-0.7c25.7-10.5,58.7-21.1,59-21.2&#xA;&#9;&#9;c0.4-0.1,0.8,0.1,0.9,0.4c0.1,0.4-0.1,0.8-0.5,0.9c-0.3,0.1-33.2,10.7-58.9,21.2C265.3,258.3,265.3,258.4,265.2,258.4z"/>
	<path class="st1_resting-75" d="M446.5,197.8c0,0-29.2,20.8-35.6,35"/>
	<path class="st2_resting-75" d="M410.9,233.5c-0.1,0-0.2,0-0.3-0.1c-0.3-0.2-0.5-0.6-0.4-0.9c6.4-14.2,34.7-34.4,35.9-35.3&#xA;&#9;&#9;c0.3-0.2,0.8-0.2,1,0.2c0.2,0.3,0.2,0.8-0.2,1c-0.3,0.2-29.2,20.9-35.4,34.7C411.4,233.3,411.1,233.5,410.9,233.5z"/>
	<path class="st2_resting-75" d="M183.7,191.2c-0.2,0-0.4-0.1-0.6-0.3c-12-16.6-40.7-32.1-41-32.3c-0.3-0.2-0.5-0.6-0.3-0.9c0,0,0,0,0,0&#xA;&#9;&#9;c0.2-0.3,0.6-0.5,0.9-0.3c0,0,0,0,0,0c0.3,0.2,29.3,15.9,41.5,32.7c0.2,0.3,0.2,0.7-0.1,1c0,0,0,0,0,0&#xA;&#9;&#9;C184,191.2,183.8,191.2,183.7,191.2z"/>
	<path class="st2_resting-75" d="M230.2,145.2H230c-0.4-0.1-0.6-0.4-0.6-0.8c0,0,0,0,0,0c1.4-7.9,5.7-11.9,5.9-12.1c0.3-0.3,0.7-0.3,1,0&#xA;&#9;&#9;s0.3,0.7,0,1c-2.9,3.2-4.8,7.1-5.4,11.3C230.8,144.9,230.5,145.2,230.2,145.2z"/>
</g>
<g id="Round_Glass_Table_resting-75">
	<path class="st2_resting-75" d="M96.3,365.9c-1.2,0-2.1-0.9-2.1-2.1l0,0v-67c0-1.2,0.9-2.1,2.1-2.1c1.2,0,2.1,0.9,2.1,2.1c0,0,0,0,0,0v67&#xA;&#9;&#9;C98.4,365,97.4,365.9,96.3,365.9C96.3,365.9,96.3,365.9,96.3,365.9z"/>
	<ellipse class="st1_resting-75" cx="96.3" cy="296.9" rx="64" ry="17.6"/>
	<path class="st2_resting-75" d="M96.3,315.2c-36.3,0-64.7-8-64.7-18.3s28.4-18.3,64.7-18.3s64.7,8,64.7,18.3S132.6,315.2,96.3,315.2z&#xA;&#9;&#9; M96.3,280C62,280,33,287.7,33,296.9s29,16.9,63.3,16.9s63.3-7.7,63.3-16.9S130.6,280,96.3,280L96.3,280z"/>
	<path class="st2_resting-75" d="M120.8,380.8c-1.2,0-2.1-0.9-2.1-2.1l0,0c0-4.4-13.2-10.1-22.5-12.7c-9.3,2.6-22.5,8.3-22.5,12.7&#xA;&#9;&#9;c0,1.2-0.9,2.1-2.1,2.1c-1.2,0-2.1-0.9-2.1-2.1c0,0,0,0,0,0c0-9.4,21.8-15.7,26.1-16.9c0.4-0.1,0.7-0.1,1.1,0&#xA;&#9;&#9;c4.4,1.2,26.2,7.6,26.2,16.9C123,379.9,122.1,380.8,120.8,380.8C120.9,380.8,120.9,380.8,120.8,380.8z"/>
</g>
<g id="Glass_resting-75">
	<circle class="st1_resting-75" cx="59.9" cy="245.5" r="9.7"/>
	<path class="st2_resting-75" d="M59.9,255.9c-5.8,0-10.4-4.7-10.4-10.4c0-5.8,4.7-10.4,10.4-10.4s10.4,4.7,10.4,10.4c0,0,0,0,0,0&#xA;&#9;&#9;C70.3,251.2,65.7,255.9,59.9,255.9z M59.9,236.5c-5,0-9,4-9,9s4,9,9,9s9-4,9-9S64.9,236.5,59.9,236.5L59.9,236.5z"/>
	<polygon class="st1_resting-75" points="62.7,296.7 88.2,296.7 91.3,246 59.7,246 &#9;"/>
	<path class="st2_resting-75" d="M88.2,297.4H62.7c-0.4,0-0.7-0.3-0.7-0.7L59,246c0-0.2,0.1-0.4,0.2-0.5c0.1-0.1,0.3-0.2,0.5-0.2h31.6&#xA;&#9;&#9;c0.2,0,0.4,0.1,0.5,0.2c0.1,0.1,0.2,0.3,0.2,0.5l-3,50.7C89,297.1,88.6,297.4,88.2,297.4C88.2,297.4,88.2,297.4,88.2,297.4z&#xA;&#9;&#9; M63.4,296h24.1l3-49.3H60.5L63.4,296z"/>
	<polygon class="st3_resting-75 targetColor" points="66.4,292.7 84.5,292.7 86,266 64.9,266 &#9;" style="fill: rgb(93, 245, 99);"/>
	<path class="st2_resting-75" d="M80.5,291.4c-0.3,0-0.6-0.2-0.7-0.6c-0.2-1,2.8-42.9,4.2-60.8c0-0.2,0.1-0.4,0.2-0.5l12.7-11.5&#xA;&#9;&#9;c0.3-0.3,0.7-0.2,1,0.1c0.3,0.3,0.2,0.7-0.1,1l-12.5,11.3c-1.2,16.5-4.3,58.5-4.2,60.1c0.1,0.4-0.1,0.7-0.5,0.8c0,0,0,0-0.1,0&#xA;&#9;&#9;C80.6,291.4,80.5,291.4,80.5,291.4z"/>
</g>
<g id="Book_resting-75">
	<polygon class="st1_resting-75" points="91.3,300.2 90.4,307.3 132.3,308.6 146.9,286.1 146.5,277.4 &#9;"/>
	<path class="st2_resting-75" d="M132.3,309.4L132.3,309.4l-42-1.4c-0.2,0-0.4-0.1-0.5-0.2c-0.1-0.2-0.2-0.4-0.2-0.5l0.9-7.1&#xA;&#9;&#9;c0-0.3,0.2-0.5,0.4-0.6l55.2-22.9c0.2-0.1,0.4-0.1,0.6,0.1c0.2,0.1,0.3,0.3,0.3,0.6l0.4,8.8c0,0.1,0,0.3-0.1,0.4L132.9,309&#xA;&#9;&#9;C132.8,309.2,132.6,309.3,132.3,309.4z M91.2,306.6l40.8,1.3l14.2-22l-0.3-7.5l-54,22.3L91.2,306.6z"/>
	<polygon class="st1_resting-75" points="108.4,275.5 91.3,300.2 131.5,301.4 146.5,277.4 &#9;"/>
	<path class="st2_resting-75" d="M131.5,302.1L131.5,302.1l-40.2-1.2c-0.4,0-0.7-0.3-0.7-0.7c0-0.1,0-0.3,0.1-0.4l17.1-24.7&#xA;&#9;&#9;c0.1-0.2,0.4-0.3,0.6-0.3l38.1,1.9c0.4,0,0.7,0.3,0.7,0.7c0,0.1,0,0.2-0.1,0.3l-15,24C132,302,131.7,302.1,131.5,302.1z&#xA;&#9;&#9; M92.6,299.5l38.5,1.1l14.2-22.7l-36.5-1.8L92.6,299.5z"/>
	<line class="st4_resting-75" x1="131.5" y1="301.4" x2="132.3" y2="308.6"/>
	<path class="st2_resting-75" d="M132.3,309.4c-0.4,0-0.7-0.3-0.7-0.6l-0.9-7.3c-0.1-0.4,0.2-0.7,0.6-0.8c0,0,0,0,0,0c0.4,0,0.7,0.2,0.8,0.6&#xA;&#9;&#9;c0,0,0,0,0,0l0.9,7.3c0.1,0.4-0.2,0.7-0.6,0.8C132.4,309.3,132.4,309.3,132.3,309.4L132.3,309.4z"/>
	<path class="st0_resting-75" d="M133,287.6L133,287.6l-25.1-1.1c-0.3,0-0.5-0.2-0.6-0.4c-0.1-0.2-0.1-0.5,0-0.7l4.2-6.1&#xA;&#9;&#9;c0.1-0.2,0.4-0.3,0.6-0.3l24.9,1.2c0.2,0,0.5,0.2,0.6,0.4c0.1,0.2,0.1,0.5,0,0.7l-4,6C133.5,287.5,133.2,287.6,133,287.6z&#xA;&#9;&#9; M109.2,285.2l23.5,1l3.1-4.6l-23.3-1.1L109.2,285.2z"/>
</g>
</svg>